{
    "asset" : {
        "generator" : "Khronos glTF Blender I/O v1.1.46",
        "version" : "2.0"
    },
    "scene" : 0,
    "scenes" : [
        {
            "name" : "Scene",
            "nodes" : [
                0,
                1,
                2,
                3
            ]
        }
    ],
    "nodes" : [
        {
            "name" : "Light",
            "rotation" : [
                0.16907575726509094,
                0.7558803558349609,
                -0.27217137813568115,
                0.570947527885437
            ],
            "translation" : [
                4.076245307922363,
                5.903861999511719,
                -1.0054539442062378
            ]
        },
        {
            "name" : "Camera",
            "rotation" : [
                0.483536034822464,
                0.33687159419059753,
                -0.20870360732078552,
                0.7804827094078064
            ],
            "translation" : [
                7.358891487121582,
                4.958309173583984,
                6.925790786743164
            ]
        },
        {
            "mesh" : 0,
            "name" : "Cone",
            "rotation" : [
                1,
                0,
                0,
                -1.6292068494294654e-07
            ],
            "scale" : [
                1,
                2.345994234085083,
                1
            ]
        },
        {
            "mesh" : 1,
            "name" : "Circle",
            "scale" : [
                0.8423782587051392,
                0.8423782587051392,
                0.8423782587051392
            ],
            "translation" : [
                0,
                2.3553378582000732,
                0
            ]
        }
    ],
    "meshes" : [
        {
            "name" : "Cone",
            "primitives" : [
                {
                    "attributes" : {
                        "POSITION" : 0,
                        "NORMAL" : 1,
                        "TEXCOORD_0" : 2
                    },
                    "indices" : 3
                }
            ]
        },
        {
            "name" : "Circle",
            "primitives" : [
                {
                    "attributes" : {
                        "POSITION" : 4,
                        "NORMAL" : 5,
                        "TEXCOORD_0" : 6
                    },
                    "indices" : 7
                }
            ]
        }
    ],
    "accessors" : [
        {
            "bufferView" : 0,
            "componentType" : 5126,
            "count" : 160,
            "max" : [
                1.0147076845169067,
                0.5926762223243713,
                1.0147076845169067
            ],
            "min" : [
                -1.0147076845169067,
                -1.0089261531829834,
                -1.0147076845169067
            ],
            "type" : "VEC3"
        },
        {
            "bufferView" : 1,
            "componentType" : 5126,
            "count" : 160,
            "type" : "VEC3"
        },
        {
            "bufferView" : 2,
            "componentType" : 5126,
            "count" : 160,
            "type" : "VEC2"
        },
        {
            "bufferView" : 3,
            "componentType" : 5123,
            "count" : 762,
            "type" : "SCALAR"
        },
        {
            "bufferView" : 4,
            "componentType" : 5126,
            "count" : 320,
            "max" : [
                1.3941683769226074,
                2.4914979934692383,
                1.3770911693572998
            ],
            "min" : [
                -1.3792446851730347,
                0,
                -1.3963218927383423
            ],
            "type" : "VEC3"
        },
        {
            "bufferView" : 5,
            "componentType" : 5126,
            "count" : 320,
            "type" : "VEC3"
        },
        {
            "bufferView" : 6,
            "componentType" : 5126,
            "count" : 320,
            "type" : "VEC2"
        },
        {
            "bufferView" : 7,
            "componentType" : 5123,
            "count" : 1650,
            "type" : "SCALAR"
        }
    ],
    "bufferViews" : [
        {
            "buffer" : 0,
            "byteLength" : 1920,
            "byteOffset" : 0
        },
        {
            "buffer" : 0,
            "byteLength" : 1920,
            "byteOffset" : 1920
        },
        {
            "buffer" : 0,
            "byteLength" : 1280,
            "byteOffset" : 3840
        },
        {
            "buffer" : 0,
            "byteLength" : 1524,
            "byteOffset" : 5120
        },
        {
            "buffer" : 0,
            "byteLength" : 3840,
            "byteOffset" : 6644
        },
        {
            "buffer" : 0,
            "byteLength" : 3840,
            "byteOffset" : 10484
        },
        {
            "buffer" : 0,
            "byteLength" : 2560,
            "byteOffset" : 14324
        },
        {
            "buffer" : 0,
            "byteLength" : 3300,
            "byteOffset" : 16884
        }
    ],
    "buffers" : [
        {
            "byteLength" : 20184,
            "uri" : "data:application/octet-stream;base64,"
        }
    ]
}
